<svg width="40" height="40" viewBox="0 0 40 40" fill="none" xmlns="http://www.w3.org/2000/svg">
<path d="M28.3333 3.33398C27.4167 3.33398 26.6667 4.08398 26.6667 5.00065V6.66732H13.3333V5.00065C13.3333 4.08398 12.5833 3.33398 11.6667 3.33398C10.75 3.33398 10 4.08398 10 5.00065V6.66732H8.33333C6.48333 6.66732 5.01667 8.16732 5.01667 10.0007L5 33.334C5 35.1673 6.48333 36.6673 8.33333 36.6673H31.6667C33.5 36.6673 35 35.1673 35 33.334V10.0007C35 8.16732 33.5 6.66732 31.6667 6.66732H30V5.00065C30 4.08398 29.25 3.33398 28.3333 3.33398ZM31.6667 33.334H8.33333V16.6673H31.6667V33.334ZM18.3333 21.6673C18.3333 20.7507 19.0833 20.0007 20 20.0007C20.9167 20.0007 21.6667 20.7507 21.6667 21.6673C21.6667 22.584 20.9167 23.334 20 23.334C19.0833 23.334 18.3333 22.584 18.3333 21.6673ZM11.6667 21.6673C11.6667 20.7507 12.4167 20.0007 13.3333 20.0007C14.25 20.0007 15 20.7507 15 21.6673C15 22.584 14.25 23.334 13.3333 23.334C12.4167 23.334 11.6667 22.584 11.6667 21.6673ZM25 21.6673C25 20.7507 25.75 20.0007 26.6667 20.0007C27.5833 20.0007 28.3333 20.7507 28.3333 21.6673C28.3333 22.584 27.5833 23.334 26.6667 23.334C25.75 23.334 25 22.584 25 21.6673ZM18.3333 28.334C18.3333 27.4173 19.0833 26.6673 20 26.6673C20.9167 26.6673 21.6667 27.4173 21.6667 28.334C21.6667 29.2507 20.9167 30.0007 20 30.0007C19.0833 30.0007 18.3333 29.2507 18.3333 28.334ZM11.6667 28.334C11.6667 27.4173 12.4167 26.6673 13.3333 26.6673C14.25 26.6673 15 27.4173 15 28.334C15 29.2507 14.25 30.0007 13.3333 30.0007C12.4167 30.0007 11.6667 29.2507 11.6667 28.334ZM25 28.334C25 27.4173 25.75 26.6673 26.6667 26.6673C27.5833 26.6673 28.3333 27.4173 28.3333 28.334C28.3333 29.2507 27.5833 30.0007 26.6667 30.0007C25.75 30.0007 25 29.2507 25 28.334Z" fill="#4F3F2A"/>
</svg>
