<svg width="87" height="109" viewBox="0 0 87 109" fill="none" xmlns="http://www.w3.org/2000/svg">
<path d="M1.536 73.336H3.392C5.90933 73.336 7.168 72.568 7.168 71.032V34.232C7.168 32.696 5.90933 31.928 3.392 31.928H1.536V30.2H19.008V31.928H17.152C15.9147 31.928 14.976 32.12 14.336 32.504C13.7387 32.8453 13.44 33.4213 13.44 34.232V69.816C13.44 71.5653 14.72 72.44 17.28 72.44H29.376C31.1253 72.44 32.448 71.416 33.344 69.368C34.2827 67.32 34.88 65.2293 35.136 63.096H36.928L35.84 75H1.536V73.336ZM39.3395 73.336H41.1955C42.4328 73.336 43.3502 73.1653 43.9475 72.824C44.5875 72.44 44.9075 71.8427 44.9075 71.032V34.232C44.9075 33.4213 44.5875 32.8453 43.9475 32.504C43.3502 32.12 42.4328 31.928 41.1955 31.928H39.3395V30.2H58.9875C63.5102 30.2 66.9235 31.1173 69.2275 32.952C71.5315 34.744 72.6835 37.368 72.6835 40.824C72.6835 43.2987 71.9582 45.496 70.5075 47.416C69.0995 49.336 67.0942 50.6373 64.4915 51.32V51.512C68.5022 52.1093 71.2968 53.4747 72.8755 55.608C74.4968 57.6987 75.3075 60.1307 75.3075 62.904C75.3075 66.7867 74.0915 69.7733 71.6595 71.864C69.2275 73.9547 65.6648 75 60.9715 75H39.3395V73.336ZM57.5155 50.296C60.2462 50.296 62.4222 49.4427 64.0435 47.736C65.6648 46.0293 66.4755 43.7893 66.4755 41.016C66.4755 38.2 65.6648 36.1307 64.0435 34.808C62.4648 33.4853 60.0542 32.824 56.8115 32.824H51.1795V50.296H57.5155ZM58.3475 72.44C61.9742 72.44 64.6835 71.608 66.4755 69.944C68.3102 68.28 69.2275 65.848 69.2275 62.648C69.2275 59.32 68.2675 56.8667 66.3475 55.288C64.4702 53.6667 61.5262 52.856 57.5155 52.856H51.1795V72.44H58.3475Z" fill="white"/>
<circle cx="81.5" cy="31.5" r="5.15" stroke="white" stroke-width="0.7"/>
<path d="M82.619 32.775C82.6843 33.0037 82.745 33.1857 82.801 33.321C82.857 33.4563 82.9363 33.573 83.039 33.671C83.1417 33.7643 83.2723 33.8133 83.431 33.818V34H82.871C82.647 34 82.4697 33.9417 82.339 33.825C82.213 33.7037 82.115 33.524 82.045 33.286L81.947 32.908C81.891 32.6653 81.835 32.4717 81.779 32.327C81.7277 32.1777 81.6507 32.0587 81.548 31.97H81.52H80.449V33.566C80.449 33.734 80.5843 33.818 80.855 33.818H81.065V34H79.154V33.818H79.357C79.4923 33.818 79.5927 33.7993 79.658 33.762C79.728 33.72 79.763 33.6547 79.763 33.566V29.541C79.763 29.4523 79.728 29.3893 79.658 29.352C79.5927 29.31 79.4923 29.289 79.357 29.289H79.154V29.1H81.52C82.0613 29.1 82.451 29.2237 82.689 29.471C82.927 29.7183 83.046 30.073 83.046 30.535C83.046 31.291 82.7357 31.746 82.115 31.9C82.2503 31.9793 82.3507 32.0867 82.416 32.222C82.4813 32.3527 82.549 32.537 82.619 32.775ZM81.387 31.683C82.045 31.683 82.374 31.3003 82.374 30.535C82.374 30.157 82.2947 29.8723 82.136 29.681C81.9773 29.485 81.7277 29.387 81.387 29.387H80.449V31.683H81.387Z" fill="white"/>
<path d="M14.136 88.136L13.864 91H5.256V90.584H5.704C6.33333 90.584 6.648 90.392 6.648 90.008V80.808C6.648 80.424 6.33333 80.232 5.704 80.232H5.256V79.8H13.88V82.568H13.448C13.4053 82.0133 13.2933 81.5227 13.112 81.096C12.9307 80.6693 12.5787 80.456 12.056 80.456H8.216V84.792H11.064C11.384 84.792 11.592 84.6693 11.688 84.424C11.784 84.168 11.8533 83.7733 11.896 83.24H12.28V86.984H11.896C11.8533 86.4507 11.784 86.0613 11.688 85.816C11.592 85.56 11.384 85.432 11.064 85.432H8.216V90.36H12.296C12.7547 90.36 13.0853 90.1413 13.288 89.704C13.5013 89.256 13.64 88.7333 13.704 88.136H14.136ZM18.4948 91.16C17.2894 91.16 16.4361 90.824 15.9348 90.152L15.7588 91.128H15.3588V88.744H15.7588C15.8761 89.2987 16.1374 89.7413 16.5428 90.072C16.9481 90.392 17.4548 90.552 18.0628 90.552C18.6814 90.552 19.1561 90.44 19.4868 90.216C19.8281 89.992 19.9988 89.6667 19.9988 89.24C19.9988 88.9093 19.8494 88.6533 19.5508 88.472C19.2521 88.28 18.7934 88.0773 18.1748 87.864C17.5988 87.6507 17.1294 87.4533 16.7668 87.272C16.4148 87.08 16.1108 86.824 15.8548 86.504C15.5988 86.1733 15.4708 85.7573 15.4708 85.256C15.4708 84.6373 15.7108 84.1627 16.1908 83.832C16.6708 83.4907 17.3428 83.32 18.2068 83.32C18.6868 83.32 19.1561 83.4 19.6148 83.56C20.0734 83.72 20.4254 83.9547 20.6708 84.264L20.8468 83.32H21.2468V85.64H20.8468C20.7188 85.1387 20.4628 84.7333 20.0788 84.424C19.7054 84.1147 19.2254 83.96 18.6388 83.96C18.1268 83.96 17.7161 84.0613 17.4068 84.264C17.0974 84.4667 16.9428 84.744 16.9428 85.096C16.9428 85.48 17.1028 85.7787 17.4228 85.992C17.7534 86.2053 18.2494 86.424 18.9108 86.648C19.4761 86.8507 19.9294 87.0373 20.2708 87.208C20.6121 87.368 20.9001 87.6027 21.1348 87.912C21.3801 88.2107 21.5028 88.5947 21.5028 89.064C21.5028 89.768 21.2201 90.296 20.6548 90.648C20.1001 90.9893 19.3801 91.16 18.4948 91.16ZM28.0636 89.544C28.0103 90.0987 27.7863 90.5093 27.3916 90.776C27.0076 91.032 26.533 91.16 25.9676 91.16C25.1676 91.16 24.5596 90.9947 24.1436 90.664C23.7276 90.3333 23.5196 89.784 23.5196 89.016V84.104H22.2716V83.48H23.5196V82.104L24.6396 81.352H25.0236V83.48H27.2796V84.104H25.0236V88.984C25.0236 89.528 25.1196 89.9333 25.3116 90.2C25.5143 90.456 25.8236 90.584 26.2396 90.584C26.5703 90.584 26.853 90.504 27.0876 90.344C27.333 90.1733 27.477 89.9067 27.5196 89.544H28.0636ZM30.583 82.024C30.3057 82.024 30.0817 81.944 29.911 81.784C29.751 81.6133 29.671 81.4 29.671 81.144C29.671 80.8773 29.751 80.664 29.911 80.504C30.0817 80.344 30.3057 80.264 30.583 80.264C30.8497 80.264 31.063 80.344 31.223 80.504C31.3937 80.664 31.479 80.8773 31.479 81.144C31.479 81.4 31.3937 81.6133 31.223 81.784C31.063 81.944 30.8497 82.024 30.583 82.024ZM28.807 90.6H29.111C29.367 90.6 29.5697 90.5573 29.719 90.472C29.879 90.3867 29.959 90.2587 29.959 90.088V84.696C29.959 84.4613 29.847 84.344 29.623 84.344C29.5697 84.344 29.4897 84.3653 29.383 84.408C29.2763 84.44 29.2017 84.4613 29.159 84.472L29.047 84.104L31.063 83.4H31.463V90.088C31.463 90.2587 31.5377 90.3867 31.687 90.472C31.847 90.5573 32.055 90.6 32.311 90.6H32.615V91H28.807V90.6ZM33.5905 90.6H33.8785C34.1452 90.6 34.3532 90.5573 34.5025 90.472C34.6625 90.3867 34.7425 90.2587 34.7425 90.088V80.824C34.7425 80.6 34.6305 80.488 34.4065 80.488C34.3105 80.488 34.1558 80.5307 33.9425 80.616L33.8305 80.248L35.8465 79.528H36.2465V90.088C36.2465 90.2587 36.3212 90.3867 36.4705 90.472C36.6305 90.5573 36.8385 90.6 37.0945 90.6H37.3665V91H33.5905V90.6ZM40.0986 82.024C39.8213 82.024 39.5973 81.944 39.4266 81.784C39.2666 81.6133 39.1866 81.4 39.1866 81.144C39.1866 80.8773 39.2666 80.664 39.4266 80.504C39.5973 80.344 39.8213 80.264 40.0986 80.264C40.3653 80.264 40.5786 80.344 40.7386 80.504C40.9093 80.664 40.9946 80.8773 40.9946 81.144C40.9946 81.4 40.9093 81.6133 40.7386 81.784C40.5786 81.944 40.3653 82.024 40.0986 82.024ZM38.3226 90.6H38.6266C38.8826 90.6 39.0853 90.5573 39.2346 90.472C39.3946 90.3867 39.4746 90.2587 39.4746 90.088V84.696C39.4746 84.4613 39.3626 84.344 39.1386 84.344C39.0853 84.344 39.0053 84.3653 38.8986 84.408C38.792 84.44 38.7173 84.4613 38.6746 84.472L38.5626 84.104L40.5786 83.4H40.9786V90.088C40.9786 90.2587 41.0533 90.3867 41.2026 90.472C41.3626 90.5573 41.5706 90.6 41.8266 90.6H42.1306V91H38.3226V90.6ZM46.3541 91.16C45.1488 91.16 44.2955 90.824 43.7941 90.152L43.6181 91.128H43.2181V88.744H43.6181C43.7355 89.2987 43.9968 89.7413 44.4021 90.072C44.8075 90.392 45.3141 90.552 45.9221 90.552C46.5408 90.552 47.0155 90.44 47.3461 90.216C47.6875 89.992 47.8581 89.6667 47.8581 89.24C47.8581 88.9093 47.7088 88.6533 47.4101 88.472C47.1115 88.28 46.6528 88.0773 46.0341 87.864C45.4581 87.6507 44.9888 87.4533 44.6261 87.272C44.2741 87.08 43.9701 86.824 43.7141 86.504C43.4581 86.1733 43.3301 85.7573 43.3301 85.256C43.3301 84.6373 43.5701 84.1627 44.0501 83.832C44.5301 83.4907 45.2021 83.32 46.0661 83.32C46.5461 83.32 47.0155 83.4 47.4741 83.56C47.9328 83.72 48.2848 83.9547 48.5301 84.264L48.7061 83.32H49.1061V85.64H48.7061C48.5781 85.1387 48.3221 84.7333 47.9381 84.424C47.5648 84.1147 47.0848 83.96 46.4981 83.96C45.9861 83.96 45.5755 84.0613 45.2661 84.264C44.9568 84.4667 44.8021 84.744 44.8021 85.096C44.8021 85.48 44.9621 85.7787 45.2821 85.992C45.6128 86.2053 46.1088 86.424 46.7701 86.648C47.3355 86.8507 47.7888 87.0373 48.1301 87.208C48.4715 87.368 48.7595 87.6027 48.9941 87.912C49.2395 88.2107 49.3621 88.5947 49.3621 89.064C49.3621 89.768 49.0795 90.296 48.5141 90.648C47.9595 90.9893 47.2395 91.16 46.3541 91.16ZM55.923 89.544C55.8697 90.0987 55.6457 90.5093 55.251 90.776C54.867 91.032 54.3923 91.16 53.827 91.16C53.027 91.16 52.419 90.9947 52.003 90.664C51.587 90.3333 51.379 89.784 51.379 89.016V84.104H50.131V83.48H51.379V82.104L52.499 81.352H52.883V83.48H55.139V84.104H52.883V88.984C52.883 89.528 52.979 89.9333 53.171 90.2C53.3737 90.456 53.683 90.584 54.099 90.584C54.4297 90.584 54.7123 90.504 54.947 90.344C55.1923 90.1733 55.3363 89.9067 55.379 89.544H55.923ZM58.7784 91.16C58.1277 91.16 57.6157 91.0107 57.2424 90.712C56.8797 90.4027 56.6984 89.9867 56.6984 89.464C56.6984 88.6853 57.1037 88.0453 57.9144 87.544C58.7357 87.0427 59.9944 86.6747 61.6904 86.44V85.608C61.6904 85.064 61.5197 84.6533 61.1784 84.376C60.837 84.0987 60.3837 83.96 59.8184 83.96C59.413 83.96 59.0397 84.04 58.6984 84.2C58.357 84.36 58.1864 84.5307 58.1864 84.712C58.1864 84.776 58.197 84.856 58.2184 84.952C58.2397 85.048 58.2504 85.1227 58.2504 85.176C58.2504 85.336 58.2024 85.4747 58.1064 85.592C58.0104 85.7093 57.8557 85.768 57.6424 85.768C57.461 85.768 57.3064 85.704 57.1784 85.576C57.061 85.4373 57.0024 85.2453 57.0024 85C57.0024 84.4667 57.3064 84.056 57.9144 83.768C58.5224 83.4693 59.2637 83.32 60.1384 83.32C61.1197 83.32 61.877 83.5387 62.4104 83.976C62.9437 84.4027 63.2104 84.9893 63.2104 85.736V90.072C63.2104 90.4133 63.3277 90.584 63.5624 90.584C63.7117 90.584 63.9037 90.5413 64.1384 90.456V90.728C63.9784 90.8667 63.7757 90.9733 63.5304 91.048C63.285 91.1227 63.0344 91.16 62.7784 91.16C62.4904 91.16 62.2397 91.1013 62.0264 90.984C61.813 90.8667 61.7064 90.6747 61.7064 90.408V89.928C61.2797 90.3973 60.805 90.7227 60.2824 90.904C59.7704 91.0747 59.269 91.16 58.7784 91.16ZM59.5144 90.52C59.909 90.52 60.3197 90.392 60.7464 90.136C61.1837 89.88 61.4984 89.5867 61.6904 89.256V86.968C60.5597 87.192 59.6904 87.5173 59.0824 87.944C58.485 88.36 58.1864 88.8293 58.1864 89.352C58.1864 89.736 58.3037 90.0293 58.5384 90.232C58.773 90.424 59.0984 90.52 59.5144 90.52ZM68.1041 91.16C66.8988 91.16 66.0455 90.824 65.5441 90.152L65.3681 91.128H64.9681V88.744H65.3681C65.4855 89.2987 65.7468 89.7413 66.1521 90.072C66.5575 90.392 67.0641 90.552 67.6721 90.552C68.2908 90.552 68.7655 90.44 69.0961 90.216C69.4375 89.992 69.6081 89.6667 69.6081 89.24C69.6081 88.9093 69.4588 88.6533 69.1601 88.472C68.8615 88.28 68.4028 88.0773 67.7841 87.864C67.2081 87.6507 66.7388 87.4533 66.3761 87.272C66.0241 87.08 65.7201 86.824 65.4641 86.504C65.2081 86.1733 65.0801 85.7573 65.0801 85.256C65.0801 84.6373 65.3201 84.1627 65.8001 83.832C66.2801 83.4907 66.9521 83.32 67.8161 83.32C68.2961 83.32 68.7655 83.4 69.2241 83.56C69.6828 83.72 70.0348 83.9547 70.2801 84.264L70.4561 83.32H70.8561V85.64H70.4561C70.3281 85.1387 70.0721 84.7333 69.6881 84.424C69.3148 84.1147 68.8348 83.96 68.2481 83.96C67.7361 83.96 67.3255 84.0613 67.0161 84.264C66.7068 84.4667 66.5521 84.744 66.5521 85.096C66.5521 85.48 66.7121 85.7787 67.0321 85.992C67.3628 86.2053 67.8588 86.424 68.5201 86.648C69.0855 86.8507 69.5388 87.0373 69.8801 87.208C70.2215 87.368 70.5095 87.6027 70.7441 87.912C70.9895 88.2107 71.1121 88.5947 71.1121 89.064C71.1121 89.768 70.8295 90.296 70.2641 90.648C69.7095 90.9893 68.9895 91.16 68.1041 91.16Z" fill="white"/>
</svg>
