<svg width="127" height="164" viewBox="0 0 127 164" fill="none" xmlns="http://www.w3.org/2000/svg">
<path d="M2.304 110.504H5.088C8.864 110.504 10.752 109.352 10.752 107.048V51.848C10.752 49.544 8.864 48.392 5.088 48.392H2.304V45.8H28.512V48.392H25.728C23.872 48.392 22.464 48.68 21.504 49.256C20.608 49.768 20.16 50.632 20.16 51.848V105.224C20.16 107.848 22.08 109.16 25.92 109.16H44.064C46.688 109.16 48.672 107.624 50.016 104.552C51.424 101.48 52.32 98.344 52.704 95.144H55.392L53.76 113H2.304V110.504ZM59.0093 110.504H61.7933C63.6493 110.504 65.0253 110.248 65.9213 109.736C66.8813 109.16 67.3613 108.264 67.3613 107.048V51.848C67.3613 50.632 66.8813 49.768 65.9213 49.256C65.0253 48.68 63.6493 48.392 61.7933 48.392H59.0093V45.8H88.4813C95.2653 45.8 100.385 47.176 103.841 49.928C107.297 52.616 109.025 56.552 109.025 61.736C109.025 65.448 107.937 68.744 105.761 71.624C103.649 74.504 100.641 76.456 96.7373 77.48V77.768C102.753 78.664 106.945 80.712 109.313 83.912C111.745 87.048 112.961 90.696 112.961 94.856C112.961 100.68 111.137 105.16 107.489 108.296C103.841 111.432 98.4973 113 91.4573 113H59.0093V110.504ZM86.2733 75.944C90.3693 75.944 93.6333 74.664 96.0653 72.104C98.4973 69.544 99.7133 66.184 99.7133 62.024C99.7133 57.8 98.4973 54.696 96.0653 52.712C93.6973 50.728 90.0813 49.736 85.2173 49.736H76.7693V75.944H86.2733ZM87.5213 109.16C92.9613 109.16 97.0253 107.912 99.7133 105.416C102.465 102.92 103.841 99.272 103.841 94.472C103.841 89.48 102.401 85.8 99.5213 83.432C96.7053 81 92.2893 79.784 86.2733 79.784H76.7693V109.16H87.5213Z" fill="#4F3F2A"/>
<circle cx="121.5" cy="54.5" r="5.15" stroke="#383434" stroke-width="0.7"/>
<path d="M122.619 55.775C122.684 56.0037 122.745 56.1857 122.801 56.321C122.857 56.4563 122.936 56.573 123.039 56.671C123.142 56.7643 123.272 56.8133 123.431 56.818V57H122.871C122.647 57 122.47 56.9417 122.339 56.825C122.213 56.7037 122.115 56.524 122.045 56.286L121.947 55.908C121.891 55.6653 121.835 55.4717 121.779 55.327C121.728 55.1777 121.651 55.0587 121.548 54.97H121.52H120.449V56.566C120.449 56.734 120.584 56.818 120.855 56.818H121.065V57H119.154V56.818H119.357C119.492 56.818 119.593 56.7993 119.658 56.762C119.728 56.72 119.763 56.6547 119.763 56.566V52.541C119.763 52.4523 119.728 52.3893 119.658 52.352C119.593 52.31 119.492 52.289 119.357 52.289H119.154V52.1H121.52C122.061 52.1 122.451 52.2237 122.689 52.471C122.927 52.7183 123.046 53.073 123.046 53.535C123.046 54.291 122.736 54.746 122.115 54.9C122.25 54.9793 122.351 55.0867 122.416 55.222C122.481 55.3527 122.549 55.537 122.619 55.775ZM121.387 54.683C122.045 54.683 122.374 54.3003 122.374 53.535C122.374 53.157 122.295 52.8723 122.136 52.681C121.977 52.485 121.728 52.387 121.387 52.387H120.449V54.683H121.387Z" fill="black"/>
<path d="M21.704 128.704L21.296 133H8.384V132.376H9.056C10 132.376 10.472 132.088 10.472 131.512V117.712C10.472 117.136 10 116.848 9.056 116.848H8.384V116.2H21.32V120.352H20.672C20.608 119.52 20.44 118.784 20.168 118.144C19.896 117.504 19.368 117.184 18.584 117.184H12.824V123.688H17.096C17.576 123.688 17.888 123.504 18.032 123.136C18.176 122.752 18.28 122.16 18.344 121.36H18.92V126.976H18.344C18.28 126.176 18.176 125.592 18.032 125.224C17.888 124.84 17.576 124.648 17.096 124.648H12.824V132.04H18.944C19.632 132.04 20.128 131.712 20.432 131.056C20.752 130.384 20.96 129.6 21.056 128.704H21.704ZM28.2421 133.24C26.4341 133.24 25.1541 132.736 24.4021 131.728L24.1381 133.192H23.5381V129.616H24.1381C24.3141 130.448 24.7061 131.112 25.3141 131.608C25.9221 132.088 26.6821 132.328 27.5941 132.328C28.5221 132.328 29.2341 132.16 29.7301 131.824C30.2421 131.488 30.4981 131 30.4981 130.36C30.4981 129.864 30.2741 129.48 29.8261 129.208C29.3781 128.92 28.6901 128.616 27.7621 128.296C26.8981 127.976 26.1941 127.68 25.6501 127.408C25.1221 127.12 24.6661 126.736 24.2821 126.256C23.8981 125.76 23.7061 125.136 23.7061 124.384C23.7061 123.456 24.0661 122.744 24.7861 122.248C25.5061 121.736 26.5141 121.48 27.8101 121.48C28.5301 121.48 29.2341 121.6 29.9221 121.84C30.6101 122.08 31.1381 122.432 31.5061 122.896L31.7701 121.48H32.3701V124.96H31.7701C31.5781 124.208 31.1941 123.6 30.6181 123.136C30.0581 122.672 29.3381 122.44 28.4581 122.44C27.6901 122.44 27.0741 122.592 26.6101 122.896C26.1461 123.2 25.9141 123.616 25.9141 124.144C25.9141 124.72 26.1541 125.168 26.6341 125.488C27.1301 125.808 27.8741 126.136 28.8661 126.472C29.7141 126.776 30.3941 127.056 30.9061 127.312C31.4181 127.552 31.8501 127.904 32.2021 128.368C32.5701 128.816 32.7541 129.392 32.7541 130.096C32.7541 131.152 32.3301 131.944 31.4821 132.472C30.6501 132.984 29.5701 133.24 28.2421 133.24ZM42.5954 130.816C42.5154 131.648 42.1794 132.264 41.5874 132.664C41.0114 133.048 40.2994 133.24 39.4514 133.24C38.2514 133.24 37.3394 132.992 36.7154 132.496C36.0914 132 35.7794 131.176 35.7794 130.024V122.656H33.9074V121.72H35.7794V119.656L37.4594 118.528H38.0354V121.72H41.4194V122.656H38.0354V129.976C38.0354 130.792 38.1794 131.4 38.4674 131.8C38.7714 132.184 39.2354 132.376 39.8594 132.376C40.3554 132.376 40.7794 132.256 41.1314 132.016C41.4994 131.76 41.7154 131.36 41.7794 130.816H42.5954ZM46.3745 119.536C45.9585 119.536 45.6225 119.416 45.3665 119.176C45.1265 118.92 45.0065 118.6 45.0065 118.216C45.0065 117.816 45.1265 117.496 45.3665 117.256C45.6225 117.016 45.9585 116.896 46.3745 116.896C46.7745 116.896 47.0945 117.016 47.3345 117.256C47.5905 117.496 47.7185 117.816 47.7185 118.216C47.7185 118.6 47.5905 118.92 47.3345 119.176C47.0945 119.416 46.7745 119.536 46.3745 119.536ZM43.7105 132.4H44.1665C44.5505 132.4 44.8545 132.336 45.0785 132.208C45.3185 132.08 45.4385 131.888 45.4385 131.632V123.544C45.4385 123.192 45.2705 123.016 44.9345 123.016C44.8545 123.016 44.7345 123.048 44.5745 123.112C44.4145 123.16 44.3025 123.192 44.2385 123.208L44.0705 122.656L47.0945 121.6H47.6945V131.632C47.6945 131.888 47.8065 132.08 48.0305 132.208C48.2705 132.336 48.5825 132.4 48.9665 132.4H49.4225V133H43.7105V132.4ZM50.8857 132.4H51.3178C51.7178 132.4 52.0298 132.336 52.2538 132.208C52.4938 132.08 52.6138 131.888 52.6138 131.632V117.736C52.6138 117.4 52.4458 117.232 52.1098 117.232C51.9658 117.232 51.7338 117.296 51.4138 117.424L51.2458 116.872L54.2698 115.792H54.8698V131.632C54.8698 131.888 54.9818 132.08 55.2058 132.208C55.4458 132.336 55.7578 132.4 56.1418 132.4H56.5498V133H50.8857V132.4ZM60.6479 119.536C60.2319 119.536 59.8959 119.416 59.6399 119.176C59.3999 118.92 59.2799 118.6 59.2799 118.216C59.2799 117.816 59.3999 117.496 59.6399 117.256C59.8959 117.016 60.2319 116.896 60.6479 116.896C61.0479 116.896 61.3679 117.016 61.6079 117.256C61.8639 117.496 61.9919 117.816 61.9919 118.216C61.9919 118.6 61.8639 118.92 61.6079 119.176C61.3679 119.416 61.0479 119.536 60.6479 119.536ZM57.9839 132.4H58.4399C58.8239 132.4 59.1279 132.336 59.3519 132.208C59.5919 132.08 59.7119 131.888 59.7119 131.632V123.544C59.7119 123.192 59.5439 123.016 59.2079 123.016C59.1279 123.016 59.0079 123.048 58.8479 123.112C58.6879 123.16 58.5759 123.192 58.5119 123.208L58.3439 122.656L61.3679 121.6H61.9679V131.632C61.9679 131.888 62.0799 132.08 62.3039 132.208C62.5439 132.336 62.8559 132.4 63.2399 132.4H63.6959V133H57.9839V132.4ZM70.0312 133.24C68.2232 133.24 66.9432 132.736 66.1912 131.728L65.9272 133.192H65.3272V129.616H65.9272C66.1032 130.448 66.4952 131.112 67.1032 131.608C67.7112 132.088 68.4712 132.328 69.3832 132.328C70.3112 132.328 71.0232 132.16 71.5192 131.824C72.0312 131.488 72.2872 131 72.2872 130.36C72.2872 129.864 72.0632 129.48 71.6152 129.208C71.1672 128.92 70.4792 128.616 69.5512 128.296C68.6872 127.976 67.9832 127.68 67.4392 127.408C66.9112 127.12 66.4552 126.736 66.0712 126.256C65.6872 125.76 65.4952 125.136 65.4952 124.384C65.4952 123.456 65.8552 122.744 66.5752 122.248C67.2952 121.736 68.3032 121.48 69.5992 121.48C70.3192 121.48 71.0232 121.6 71.7112 121.84C72.3992 122.08 72.9272 122.432 73.2952 122.896L73.5592 121.48H74.1592V124.96H73.5592C73.3672 124.208 72.9832 123.6 72.4072 123.136C71.8472 122.672 71.1272 122.44 70.2472 122.44C69.4792 122.44 68.8632 122.592 68.3992 122.896C67.9352 123.2 67.7032 123.616 67.7032 124.144C67.7032 124.72 67.9432 125.168 68.4232 125.488C68.9192 125.808 69.6632 126.136 70.6552 126.472C71.5032 126.776 72.1832 127.056 72.6952 127.312C73.2072 127.552 73.6392 127.904 73.9912 128.368C74.3592 128.816 74.5432 129.392 74.5432 130.096C74.5432 131.152 74.1192 131.944 73.2712 132.472C72.4392 132.984 71.3592 133.24 70.0312 133.24ZM84.3845 130.816C84.3045 131.648 83.9685 132.264 83.3765 132.664C82.8005 133.048 82.0885 133.24 81.2405 133.24C80.0405 133.24 79.1285 132.992 78.5045 132.496C77.8805 132 77.5685 131.176 77.5685 130.024V122.656H75.6965V121.72H77.5685V119.656L79.2485 118.528H79.8245V121.72H83.2085V122.656H79.8245V129.976C79.8245 130.792 79.9685 131.4 80.2565 131.8C80.5605 132.184 81.0245 132.376 81.6485 132.376C82.1445 132.376 82.5685 132.256 82.9205 132.016C83.2885 131.76 83.5045 131.36 83.5685 130.816H84.3845ZM88.6676 133.24C87.6916 133.24 86.9236 133.016 86.3636 132.568C85.8196 132.104 85.5476 131.48 85.5476 130.696C85.5476 129.528 86.1556 128.568 87.3716 127.816C88.6036 127.064 90.4916 126.512 93.0356 126.16V124.912C93.0356 124.096 92.7796 123.48 92.2676 123.064C91.7556 122.648 91.0756 122.44 90.2276 122.44C89.6196 122.44 89.0596 122.56 88.5476 122.8C88.0356 123.04 87.7796 123.296 87.7796 123.568C87.7796 123.664 87.7956 123.784 87.8276 123.928C87.8596 124.072 87.8756 124.184 87.8756 124.264C87.8756 124.504 87.8036 124.712 87.6596 124.888C87.5156 125.064 87.2836 125.152 86.9636 125.152C86.6916 125.152 86.4596 125.056 86.2676 124.864C86.0916 124.656 86.0036 124.368 86.0036 124C86.0036 123.2 86.4596 122.584 87.3716 122.152C88.2836 121.704 89.3956 121.48 90.7076 121.48C92.1796 121.48 93.3156 121.808 94.1156 122.464C94.9156 123.104 95.3156 123.984 95.3156 125.104V131.608C95.3156 132.12 95.4916 132.376 95.8436 132.376C96.0676 132.376 96.3556 132.312 96.7076 132.184V132.592C96.4676 132.8 96.1636 132.96 95.7956 133.072C95.4276 133.184 95.0516 133.24 94.6676 133.24C94.2356 133.24 93.8596 133.152 93.5396 132.976C93.2196 132.8 93.0596 132.512 93.0596 132.112V131.392C92.4196 132.096 91.7076 132.584 90.9236 132.856C90.1556 133.112 89.4036 133.24 88.6676 133.24ZM89.7716 132.28C90.3636 132.28 90.9796 132.088 91.6196 131.704C92.2756 131.32 92.7476 130.88 93.0356 130.384V126.952C91.3396 127.288 90.0356 127.776 89.1236 128.416C88.2276 129.04 87.7796 129.744 87.7796 130.528C87.7796 131.104 87.9556 131.544 88.3076 131.848C88.6596 132.136 89.1476 132.28 89.7716 132.28ZM102.656 133.24C100.848 133.24 99.5682 132.736 98.8162 131.728L98.5522 133.192H97.9522V129.616H98.5522C98.7282 130.448 99.1202 131.112 99.7282 131.608C100.336 132.088 101.096 132.328 102.008 132.328C102.936 132.328 103.648 132.16 104.144 131.824C104.656 131.488 104.912 131 104.912 130.36C104.912 129.864 104.688 129.48 104.24 129.208C103.792 128.92 103.104 128.616 102.176 128.296C101.312 127.976 100.608 127.68 100.064 127.408C99.5362 127.12 99.0802 126.736 98.6962 126.256C98.3122 125.76 98.1202 125.136 98.1202 124.384C98.1202 123.456 98.4802 122.744 99.2002 122.248C99.9202 121.736 100.928 121.48 102.224 121.48C102.944 121.48 103.648 121.6 104.336 121.84C105.024 122.08 105.552 122.432 105.92 122.896L106.184 121.48H106.784V124.96H106.184C105.992 124.208 105.608 123.6 105.032 123.136C104.472 122.672 103.752 122.44 102.872 122.44C102.104 122.44 101.488 122.592 101.024 122.896C100.56 123.2 100.328 123.616 100.328 124.144C100.328 124.72 100.568 125.168 101.048 125.488C101.544 125.808 102.288 126.136 103.28 126.472C104.128 126.776 104.808 127.056 105.32 127.312C105.832 127.552 106.264 127.904 106.616 128.368C106.984 128.816 107.168 129.392 107.168 130.096C107.168 131.152 106.744 131.944 105.896 132.472C105.064 132.984 103.984 133.24 102.656 133.24Z" fill="#4F3F2A"/>
</svg>
